<?xml version="1.0" encoding="UTF-8" standalone="no"?>
<!DOCTYPE svg PUBLIC "-//W3C//DTD SVG 1.1//EN" "http://www.w3.org/Graphics/SVG/1.1/DTD/svg11.dtd">
<svg width="100%" height="100%" viewBox="0 0 1920 720" version="1.1" xmlns="http://www.w3.org/2000/svg" xmlns:xlink="http://www.w3.org/1999/xlink" xml:space="preserve" xmlns:serif="http://www.serif.com/" style="fill-rule:evenodd;clip-rule:evenodd;stroke-linejoin:round;stroke-miterlimit:2;">
    <g id="path2198" transform="matrix(0.625556,0.171383,-0.171383,0.625556,1161.96,190.162)">
        <path d="M445.857,81.656L445.857,81.906C420.857,63.656 398.857,57.406 351.857,69.656L189.107,114.906L190.107,255.406L329.857,215.656C341.357,212.906 373.107,205.656 385.357,193.906L387.107,340.656C360.107,324.656 340.107,319.656 292.107,333.156L190.607,361.906L191.357,510.906C190.857,562.656 200.857,595.656 243.357,615.406L-203.143,741.156L-348.143,782.656L-545.143,560.156L-544.893,737.906C-544.143,779.156 -536.393,809.656 -491.893,822.156L-805.893,910.406C-750.143,867.906 -751.393,818.906 -751.393,776.656L-754.643,365.906C-756.393,317.406 -771.893,295.656 -810.143,288.406L-492.893,199.406C-518.893,219.156 -545.143,251.656 -546.393,300.906L-545.643,498.656L-368.643,260.156C-333.643,217.406 -348.393,184.656 -395.893,172.656L-101.393,90.406L-368.643,418.656L-130.143,662.156C-97.143,691.156 -80.643,701.906 -55.143,694.656C-24.393,686.156 -15.643,648.906 -15.643,569.656L-19.393,159.656C-20.643,111.656 -35.643,90.406 -73.893,82.406L389.107,-47.094C401.857,-50.594 432.607,-57.344 444.857,-69.344L445.857,81.656ZM-280.643,737.906C-311.143,744.906 -340.643,714.406 -340.643,714.406L-338.393,718.156L-510.643,524.406L-325.643,277.656C-288.143,229.406 -284.893,172.406 -338.643,168.906C-313.643,192.406 -314.643,227.906 -346.643,269.406L-539.143,525.906L-337.143,754.156L-311.893,746.406L-280.643,737.906ZM-728.143,795.156L-727.893,795.156C-726.893,826.656 -734.893,854.906 -754.393,873.406C-718.393,864.156 -705.143,842.156 -705.143,790.906L-708.393,360.656C-708.393,299.656 -730.143,284.906 -758.143,285.906C-739.643,299.656 -730.393,314.656 -730.893,366.406L-728.143,795.156ZM191.107,65.906L190.357,89.156L341.107,47.406C391.607,32.156 412.107,36.656 432.107,46.656C423.357,11.406 384.357,12.156 340.607,24.406L191.107,65.906ZM191.107,335.406L280.857,310.406C331.357,295.156 352.107,299.656 371.857,309.406C362.857,274.906 323.607,274.906 280.357,287.656L191.107,311.906L191.107,335.406ZM7.857,591.406C7.857,630.656 4.857,651.906 -14.393,668.156C21.357,659.406 30.857,639.156 30.357,587.406L27.107,156.906C27.107,96.406 5.607,80.906 -22.893,80.906C-4.143,96.406 5.607,111.406 5.107,162.156L7.857,591.406ZM914.107,341.406C961.357,327.656 1017.11,297.406 1059.86,269.406L1059.86,386.156C1004.61,414.906 935.107,437.656 863.857,458.406C621.357,526.656 480.607,425.406 444.357,295.656C395.857,123.406 540.607,-104.844 840.856,-189.094C906.357,-207.844 963.357,-217.094 1008.61,-218.344L1008.61,-94.344C935.857,-104.844 883.357,-97.594 836.107,-85.094C686.357,-42.594 627.607,94.656 658.606,205.656C686.357,305.406 784.606,376.656 914.107,341.406ZM471.107,287.656C524.107,479.906 745.107,482.406 891.357,428.656C754.107,458.406 545.857,461.156 495.607,280.156C444.357,91.906 624.856,-57.344 732.856,-120.094C602.356,-68.594 418.107,96.406 471.107,287.656ZM-1579.27,483.602L-1006.97,326.809L-968.591,466.897L-1070.07,494.7L-1080.65,456.093L-1334.09,525.528L-1116.54,676.327L-1226.85,916.954L-973.407,847.518L-983.984,808.911L-882.503,781.108L-844.123,921.196L-1416.43,1077.99L-1248.91,712.595L-1579.27,483.602ZM622.094,-163.826L616.328,-184.872L637.277,-190.611L643.043,-169.566L622.094,-163.826ZM745.438,-197.619L741.669,-211.376C737.751,-198.677 729.115,-190.498 715.762,-186.84C707.11,-184.47 698.5,-184.686 689.932,-187.489C681.364,-190.292 673.91,-195.442 667.572,-202.94C661.233,-210.437 656.536,-219.764 653.479,-230.92C650.498,-241.802 649.598,-252.169 650.781,-262.022C651.963,-271.874 655.519,-280.151 661.446,-286.852C667.374,-293.552 674.8,-298.125 683.725,-300.571C690.265,-302.362 696.47,-302.572 702.339,-301.2C708.207,-299.828 713.352,-297.357 717.773,-293.785L702.979,-347.785L721.271,-352.797L762.504,-202.295L745.438,-197.619ZM672.385,-236.099C676.21,-222.137 681.999,-212.503 689.751,-207.195C697.504,-201.888 705.366,-200.326 713.337,-202.51C721.376,-204.712 727.301,-209.886 731.112,-218.03C734.923,-226.175 734.972,-237.022 731.26,-250.574C727.172,-265.494 721.31,-275.661 713.675,-281.074C706.04,-286.487 698.032,-288.046 689.653,-285.75C681.478,-283.51 675.567,-278.285 671.92,-270.076C668.273,-261.866 668.428,-250.54 672.385,-236.099ZM856.098,-265.682L875.752,-268.528C875.811,-256.551 872.63,-246.372 866.211,-237.991C859.791,-229.611 850.28,-223.694 837.676,-220.241C821.803,-215.892 807.871,-217.354 795.881,-224.628C783.89,-231.901 775.467,-244.401 770.611,-262.127C765.585,-280.47 766.386,-295.993 773.013,-308.698C779.639,-321.403 790.446,-329.809 805.434,-333.915C819.945,-337.891 833.159,-336.177 845.075,-328.772C856.991,-321.368 865.415,-308.666 870.346,-290.666C870.646,-289.571 871.062,-287.919 871.594,-285.71L790.659,-263.536C794.622,-251.746 800.506,-243.499 808.314,-238.795C816.121,-234.091 824.555,-232.98 833.616,-235.463C840.36,-237.31 845.63,-240.667 849.423,-245.533C853.217,-250.398 855.442,-257.115 856.098,-265.682ZM787.518,-279.01L848.117,-295.613C844.787,-304.56 840.586,-310.804 835.515,-314.344C827.706,-319.857 819.135,-321.334 809.801,-318.777C801.353,-316.463 795.029,-311.677 790.829,-304.419C786.628,-297.161 785.525,-288.692 787.518,-279.01ZM937.966,-250.366L866.811,-348.082L886.227,-353.401L927.415,-294.492C931.867,-288.133 936.189,-281.444 940.383,-274.426C940.443,-280.623 940.831,-288.161 941.548,-297.039L947.439,-370.172L966.345,-375.351L955.134,-255.069L937.966,-250.366Z"/>
    </g>
</svg>
